<svg viewBox="0 0 40 40" preserveAspectRatio="xMidYMid meet" focusable="false" style="pointer-events: none; display: block; width: 100%; height: 100%;"><g><path d="M20,2A18,18,0,1,1,2,20,18.02,18.02,0,0,1,20,2m0-2A20,20,0,1,0,40,20,20,20,0,0,0,20,0h0Z"></path><path d="M27,20.9H13a1,1,0,0,1-1-1h0a1,1,0,0,1,1-1H27a1,1,0,0,1,1,1h0A1,1,0,0,1,27,20.9Z"></path><path d="M26.3,20.6l-4.8-4.8a0.967,0.967,0,0,1,0-1.4h0a0.967,0.967,0,0,1,1.4,0l4.8,4.8a0.967,0.967,0,0,1,0,1.4h0A0.967,0.967,0,0,1,26.3,20.6Z"></path><path d="M27.7,20.8l-4.8,4.8a0.967,0.967,0,0,1-1.4,0h0a0.967,0.967,0,0,1,0-1.4l4.8-4.8a0.967,0.967,0,0,1,1.4,0h0A0.965,0.965,0,0,1,27.7,20.8Z"></path></g></svg>